<svg xmlns="http://www.w3.org/2000/svg"  width="7500" height="1100" viewBox="0 0 7500 1100">
<defs>
  <style type="text/css">
    .fil1 {fill:#3D3A39}
    .fil0 {fill:#ED3237}
  </style>
 </defs>
 <g id="Warstwa_x0020_1">
   <path class="fil0" d="M7290.38 1080.04l-1179.91 0 0 -132.22 1179.91 0c10.48,0 19.21,-3.3 25.74,-9.35 6.5,-6.04 9.97,-14.09 9.97,-23.82 0,-9.87 -3.47,-17.75 -9.97,-23.8 -6.53,-6.05 -15.26,-9.31 -25.74,-9.31l-715.15 0c-63.8,0 -123.77,-11.38 -180.11,-33.94 -56.38,-22.52 -105.58,-53.09 -147.95,-92.64 -42.59,-39.22 -75.75,-84.64 -100.08,-136.83 -24.24,-52.25 -36.62,-107.83 -36.62,-166.91 0,-58.96 12.38,-114.54 36.62,-166.77 24.33,-52.19 57.49,-97.69 100.08,-137.18 42.37,-39.11 91.57,-70.13 147.95,-92.66 56.34,-22.43 116.31,-33.59 180.11,-33.59l893.92 0 0 132.38 -893.92 0c-44.79,0 -86.31,7.71 -124.92,23.01 -38.57,15.67 -73,37.07 -102.4,64.38 -29.46,27.27 -52.62,59.06 -69.28,95.31 -16.88,36.29 -25.18,74.66 -25.18,115.12 0,41.58 8.3,80.06 25.18,115.75 16.66,35.74 39.82,67.46 69.28,94.76 29.4,27.28 63.83,48.69 102.4,64.11 38.61,15.57 80.13,23.25 124.92,23.25l715.15 0c24.85,0 48.09,4.57 69.45,13.37 21.49,8.62 40.07,20.53 56.4,35.71 16.21,15.03 29.18,32.23 38.59,52.19 9.47,19.8 14.33,41.24 14.33,64.29 0,23.1 -4.86,44.14 -14.33,64.1 -9.41,19.8 -22.38,37.38 -38.59,52.4 -16.33,15.22 -34.91,26.92 -56.4,35.68 -21.36,8.8 -44.6,13.21 -69.45,13.21zm-1465.88 -430.22c0,41.58 -8.34,80.04 -24.93,115.76 -16.82,35.7 -39.98,67.57 -69.44,94.85 -29.5,27.12 -63.83,48.74 -103.12,63.95 -39.13,15.73 -80.59,23.44 -124.33,23.44l-429.02 0c-44.9,0 -86.33,-7.71 -125,-23.44 -38.58,-15.21 -72.94,-36.83 -102.31,-63.95 -29.49,-27.28 -52.65,-59.15 -69.24,-94.85 -16.93,-35.72 -25.16,-74.18 -25.16,-115.76l-0.03 -198.6c0,-40.46 8.24,-78.83 25.15,-115.12 16.59,-36.25 39.75,-68.04 69.25,-95.31 29.36,-27.31 63.73,-48.71 102.31,-64.38 38.67,-15.3 80.09,-23.01 125.01,-23.01l429.04 0c43.74,0 85.2,7.71 124.33,23.01 39.29,15.67 73.62,37.07 103.12,64.38 29.46,27.27 52.62,59.06 69.44,95.31 16.59,36.29 24.93,74.66 24.93,115.12l0 198.6zm-750.84 430.22l429.02 0c63.83,0 123.86,-11.33 180.15,-33.67 56.41,-22.54 105.67,-53.32 148.19,-92.69 42.34,-39.22 75.79,-84.78 100.12,-137 24.34,-52.23 36.42,-107.68 36.42,-166.86l0 -198.6c0,-58.96 -12.08,-114.54 -36.42,-166.77 -24.33,-52.19 -57.78,-97.69 -100.12,-137.18 -42.52,-39.11 -91.78,-70.13 -148.19,-92.66 -56.29,-22.43 -116.32,-33.59 -180.15,-33.59l-429.04 0c-63.67,0 -123.84,11.16 -180.25,33.59 -56.24,22.53 -105.44,53.55 -147.77,92.66 -42.66,39.49 -75.82,84.99 -100.15,137.18 -24.3,52.23 -36.58,107.81 -36.58,166.77l0.03 198.6c0,59.18 12.27,114.63 36.58,166.86 24.33,52.22 57.49,97.78 100.15,137 42.33,39.37 91.5,70.15 147.77,92.69 56.41,22.34 116.55,33.67 180.24,33.67zm-1966.43 0l143 0 0 -727.98 750.9 0c43.73,0 85.25,7.6 124.31,22.98 39.3,15.55 73.53,37.08 103.03,64.35 29.46,27.21 52.62,59.03 69.55,95.25 16.49,36.29 24.78,74.76 24.78,115.18l0 430.22 143.04 0 0 -430.22c0,-58.93 -12.05,-114.64 -36.29,-166.79 -24.3,-52.13 -57.88,-97.64 -100.21,-137.1 -42.53,-39.22 -91.69,-70.19 -148.1,-92.71 -56.25,-22.53 -116.42,-33.59 -180.11,-33.59l-750.9 0 0 -198.61 -143 0 0 1059.02z"/>
   <path class="fil1" d="M1983.1 1080.04l893.76 0 0 -132.22 -893.76 0c-44.95,0 -86.44,-7.71 -125.05,-23.44 -38.6,-15.21 -72.94,-36.83 -102.37,-63.95 -29.46,-27.28 -52.65,-59.15 -69.24,-94.85 -16.86,-35.72 -25.19,-74.18 -25.19,-115.76l0 -628.8 -142.97 0 0 628.8c0,59.18 12.28,114.63 36.61,166.86 24.27,52.22 57.47,97.78 100.09,137 42.37,39.37 91.5,70.15 147.8,92.69 56.42,22.34 116.49,33.67 180.32,33.67zm-1501.7 0l893.84 0 0 -132.22 -893.84 0c-44.9,0 -86.39,-7.71 -124.97,-23.44 -38.64,-15.21 -72.97,-36.83 -102.41,-63.95 -29.46,-27.28 -52.62,-59.15 -69.24,-94.85 -16.86,-35.72 -25.15,-74.18 -25.15,-115.76l0 -32.96 1215.61 0 0 -132.47 -1215.61 0 0 -33.17c0,-40.46 8.29,-78.83 25.15,-115.12 16.62,-36.25 39.78,-68.04 69.24,-95.31 29.44,-27.31 63.77,-48.71 102.41,-64.38 38.58,-15.3 80.07,-23.01 124.97,-23.01l893.84 0 0 -132.38 -893.84 0c-63.78,0 -123.83,11.16 -180.17,33.59 -56.34,22.53 -105.58,53.55 -147.94,92.66 -42.59,39.49 -75.78,84.99 -100.08,137.18 -24.27,52.23 -36.62,107.81 -36.62,166.77l0 198.6c0,59.18 12.35,114.63 36.62,166.86 24.3,52.22 57.49,97.78 100.08,137 42.36,39.37 91.6,70.15 147.94,92.69 56.34,22.34 116.39,33.67 180.17,33.67z"/>
  </g>
</svg>
